CddbId:c90ee063:[150, 764, 2526, 6162, 9750, 12487, 15469, 19070, 21926, 25012, 27959, 31198, 34256, 37481, 40992, 44489, 47470, 50626, 53308, 56735, 59995, 63701, 67289, 70159, 73739, 77132, 80573, 83638, 87246, 89991, 93216, 96316, 99583, 102829, 106033, 109085, 112331, 115911, 118962, 122369, 125887, 129390, 133110, 136447, 140550, 144151, 146492, 149446, 152775, 156175, 158857, 162625, 165467, 168330, 170956, 173994, 177107, 179950, 183049, 186407, 189110, 191903, 195268, 198270, 201447, 204087, 206803, 209597, 212759, 215783, 218583, 221676, 224657, 226817, 230063, 232731, 235580, 237948, 240414, 242581, 244893, 246921, 249672, 252061, 254785, 256861, 258171, 259738, 261361, 262357, 263583, 264886, 265798, 266920, 269699, 272339, 275432, 277843, 279911]:285750:74:c90ee063 99 150 764 2526 6162 9750 12487 15469 19070 21926 25012 27959 31198 34256 37481 40992 44489 47470 50626 53308 56735 59995 63701 67289 70159 73739 77132 80573 83638 87246 89991 93216 96316 99583 102829 106033 109085 112331 115911 118962 122369 125887 129390 133110 136447 140550 144151 146492 149446 152775 156175 158857 162625 165467 168330 170956 173994 177107 179950 183049 186407 189110 191903 195268 198270 201447 204087 206803 209597 212759 215783 218583 221676 224657 226817 230063 232731 235580 237948 240414 242581 244893 246921 249672 252061 254785 256861 258171 259738 261361 262357 263583 264886 265798 266920 269699 272339 275432 277843 279911 3810: 99 0 0 0 0 0 0 0 0 0 0 0 0 0 0 0 0 0 0 0 0 0 0 0 0 0 0 0 0 0 0 0 0 0 0 0 0 0 0 0 0 0 0 0 0 0 0 0 0 0 0 0 0 0 0 0 0 0 0 0 0 0 0 0 0 0 0 0 0 0 0 0 0 0 0 0 0 0 0 0 0 0 0 0 0 0 0 0 0 0 0 0 0 0 0 0 0 0 0 0 3810
num_tracks: 99
offsets: [150, 764, 2526, 6162, 9750, 12487, 15469, 19070, 21926, 25012, 27959, 31198, 34256, 37481, 40992, 44489, 47470, 50626, 53308, 56735, 59995, 63701, 67289, 70159, 73739, 77132, 80573, 83638, 87246, 89991, 93216, 96316, 99583, 102829, 106033, 109085, 112331, 115911, 118962, 122369, 125887, 129390, 133110, 136447, 140550, 144151, 146492, 149446, 152775, 156175, 158857, 162625, 165467, 168330, 170956, 173994, 177107, 179950, 183049, 186407, 189110, 191903, 195268, 198270, 201447, 204087, 206803, 209597, 212759, 215783, 218583, 221676, 224657, 226817, 230063, 232731, 235580, 237948, 240414, 242581, 244893, 246921, 249672, 252061, 254785, 256861, 258171, 259738, 261361, 262357, 263583, 264886, 265798, 266920, 269699, 272339, 275432, 277843, 279911]
extents: [0, 0, 0, 0, 0, 0, 0, 0, 0, 0, 0, 0, 0, 0, 0, 0, 0, 0, 0, 0, 0, 0, 0, 0, 0, 0, 0, 0, 0, 0, 0, 0, 0, 0, 0, 0, 0, 0, 0, 0, 0, 0, 0, 0, 0, 0, 0, 0, 0, 0, 0, 0, 0, 0, 0, 0, 0, 0, 0, 0, 0, 0, 0, 0, 0, 0, 0, 0, 0, 0, 0, 0, 0, 0, 0, 0, 0, 0, 0, 0, 0, 0, 0, 0, 0, 0, 0, 0, 0, 0, 0, 0, 0, 0, 0, 0, 0, 0, 0]
total_length: 3810
cddb: [3373195363, 99, 150, 764, 2526, 6162, 9750, 12487, 15469, 19070, 21926, 25012, 27959, 31198, 34256, 37481, 40992, 44489, 47470, 50626, 53308, 56735, 59995, 63701, 67289, 70159, 73739, 77132, 80573, 83638, 87246, 89991, 93216, 96316, 99583, 102829, 106033, 109085, 112331, 115911, 118962, 122369, 125887, 129390, 133110, 136447, 140550, 144151, 146492, 149446, 152775, 156175, 158857, 162625, 165467, 168330, 170956, 173994, 177107, 179950, 183049, 186407, 189110, 191903, 195268, 198270, 201447, 204087, 206803, 209597, 212759, 215783, 218583, 221676, 224657, 226817, 230063, 232731, 235580, 237948, 240414, 242581, 244893, 246921, 249672, 252061, 254785, 256861, 258171, 259738, 261361, 262357, 263583, 264886, 265798, 266920, 269699, 272339, 275432, 277843, 279911, 3810]
musicbrainz: ('99 150 764 2526 6162 9750 12487 15469 19070 21926 25012 27959 31198 34256 37481 40992 44489 47470 50626 53308 56735 59995 63701 67289 70159 73739 77132 80573 83638 87246 89991 93216 96316 99583 102829 106033 109085 112331 115911 118962 122369 125887 129390 133110 136447 140550 144151 146492 149446 152775 156175 158857 162625 165467 168330 170956 173994 177107 179950 183049 186407 189110 191903 195268 198270 201447 204087 206803 209597 212759 215783 218583 221676 224657 226817 230063 232731 235580 237948 240414 242581 244893 246921 249672 252061 254785 256861 258171 259738 261361 262357 263583 264886 265798 266920 269699 272339 275432 277843 279911 285750', 'McgDNniy4Dr23iGHfQOBZMrCtZI-')

CD record:
Device type    : Removable CD-ROM
Version        : 0
Response Format: 2
Capabilities   : 
Vendor_info    : 'FREECOM_'
Identification : 'DVD+/-RW16H4    '
Revision       : 'FR00'
Device seems to be: Generic mmc2 DVD-R/DVD-RW.
Using generic SCSI-3/mmc   CD-R/CD-RW driver (mmc_cdr).
Driver flags   : MMC-3 SWABAUDIO BURNFREE 
Supported modes: TAO PACKET SAO SAO/R96R RAW/R96R
first: 1 last 99
track:   1 lba:         0 (        0) 00:02:00 adr: 1 control: 0 mode: -1
track:   2 lba:       614 (     2456) 00:10:14 adr: 1 control: 0 mode: -1
track:   3 lba:      2376 (     9504) 00:33:51 adr: 1 control: 0 mode: -1
track:   4 lba:      6012 (    24048) 01:22:12 adr: 1 control: 0 mode: -1
track:   5 lba:      9600 (    38400) 02:10:00 adr: 1 control: 0 mode: -1
track:   6 lba:     12337 (    49348) 02:46:37 adr: 1 control: 0 mode: -1
track:   7 lba:     15319 (    61276) 03:26:19 adr: 1 control: 0 mode: -1
track:   8 lba:     18920 (    75680) 04:14:20 adr: 1 control: 0 mode: -1
track:   9 lba:     21776 (    87104) 04:52:26 adr: 1 control: 0 mode: -1
track:  10 lba:     24862 (    99448) 05:33:37 adr: 1 control: 0 mode: -1
track:  11 lba:     27809 (   111236) 06:12:59 adr: 1 control: 0 mode: -1
track:  12 lba:     31048 (   124192) 06:55:73 adr: 1 control: 0 mode: -1
track:  13 lba:     34106 (   136424) 07:36:56 adr: 1 control: 0 mode: -1
track:  14 lba:     37331 (   149324) 08:19:56 adr: 1 control: 0 mode: -1
track:  15 lba:     40842 (   163368) 09:06:42 adr: 1 control: 0 mode: -1
track:  16 lba:     44339 (   177356) 09:53:14 adr: 1 control: 0 mode: -1
track:  17 lba:     47320 (   189280) 10:32:70 adr: 1 control: 0 mode: -1
track:  18 lba:     50476 (   201904) 11:15:01 adr: 1 control: 0 mode: -1
track:  19 lba:     53158 (   212632) 11:50:58 adr: 1 control: 0 mode: -1
track:  20 lba:     56585 (   226340) 12:36:35 adr: 1 control: 0 mode: -1
track:  21 lba:     59845 (   239380) 13:19:70 adr: 1 control: 0 mode: -1
track:  22 lba:     63551 (   254204) 14:09:26 adr: 1 control: 0 mode: -1
track:  23 lba:     67139 (   268556) 14:57:14 adr: 1 control: 0 mode: -1
track:  24 lba:     70009 (   280036) 15:35:34 adr: 1 control: 0 mode: -1
track:  25 lba:     73589 (   294356) 16:23:14 adr: 1 control: 0 mode: -1
track:  26 lba:     76982 (   307928) 17:08:32 adr: 1 control: 0 mode: -1
track:  27 lba:     80423 (   321692) 17:54:23 adr: 1 control: 0 mode: -1
track:  28 lba:     83488 (   333952) 18:35:13 adr: 1 control: 0 mode: -1
track:  29 lba:     87096 (   348384) 19:23:21 adr: 1 control: 0 mode: -1
track:  30 lba:     89841 (   359364) 19:59:66 adr: 1 control: 0 mode: -1
track:  31 lba:     93066 (   372264) 20:42:66 adr: 1 control: 0 mode: -1
track:  32 lba:     96166 (   384664) 21:24:16 adr: 1 control: 0 mode: -1
track:  33 lba:     99433 (   397732) 22:07:58 adr: 1 control: 0 mode: -1
track:  34 lba:    102679 (   410716) 22:51:04 adr: 1 control: 0 mode: -1
track:  35 lba:    105883 (   423532) 23:33:58 adr: 1 control: 0 mode: -1
track:  36 lba:    108935 (   435740) 24:14:35 adr: 1 control: 0 mode: -1
track:  37 lba:    112181 (   448724) 24:57:56 adr: 1 control: 0 mode: -1
track:  38 lba:    115761 (   463044) 25:45:36 adr: 1 control: 0 mode: -1
track:  39 lba:    118812 (   475248) 26:26:12 adr: 1 control: 0 mode: -1
track:  40 lba:    122219 (   488876) 27:11:44 adr: 1 control: 0 mode: -1
track:  41 lba:    125737 (   502948) 27:58:37 adr: 1 control: 0 mode: -1
track:  42 lba:    129240 (   516960) 28:45:15 adr: 1 control: 0 mode: -1
track:  43 lba:    132960 (   531840) 29:34:60 adr: 1 control: 0 mode: -1
track:  44 lba:    136297 (   545188) 30:19:22 adr: 1 control: 0 mode: -1
track:  45 lba:    140400 (   561600) 31:14:00 adr: 1 control: 0 mode: -1
track:  46 lba:    144001 (   576004) 32:02:01 adr: 1 control: 0 mode: -1
track:  47 lba:    146342 (   585368) 32:33:17 adr: 1 control: 0 mode: -1
track:  48 lba:    149296 (   597184) 33:12:46 adr: 1 control: 0 mode: -1
track:  49 lba:    152625 (   610500) 33:57:00 adr: 1 control: 0 mode: -1
track:  50 lba:    156025 (   624100) 34:42:25 adr: 1 control: 0 mode: -1
track:  51 lba:    158707 (   634828) 35:18:07 adr: 1 control: 0 mode: -1
track:  52 lba:    162475 (   649900) 36:08:25 adr: 1 control: 0 mode: -1
track:  53 lba:    165317 (   661268) 36:46:17 adr: 1 control: 0 mode: -1
track:  54 lba:    168180 (   672720) 37:24:30 adr: 1 control: 0 mode: -1
track:  55 lba:    170806 (   683224) 37:59:31 adr: 1 control: 0 mode: -1
track:  56 lba:    173844 (   695376) 38:39:69 adr: 1 control: 0 mode: -1
track:  57 lba:    176957 (   707828) 39:21:32 adr: 1 control: 0 mode: -1
track:  58 lba:    179800 (   719200) 39:59:25 adr: 1 control: 0 mode: -1
track:  59 lba:    182899 (   731596) 40:40:49 adr: 1 control: 0 mode: -1
track:  60 lba:    186257 (   745028) 41:25:32 adr: 1 control: 0 mode: -1
track:  61 lba:    188960 (   755840) 42:01:35 adr: 1 control: 0 mode: -1
track:  62 lba:    191753 (   767012) 42:38:53 adr: 1 control: 0 mode: -1
track:  63 lba:    195118 (   780472) 43:23:43 adr: 1 control: 0 mode: -1
track:  64 lba:    198120 (   792480) 44:03:45 adr: 1 control: 0 mode: -1
track:  65 lba:    201297 (   805188) 44:45:72 adr: 1 control: 0 mode: -1
track:  66 lba:    203937 (   815748) 45:21:12 adr: 1 control: 0 mode: -1
track:  67 lba:    206653 (   826612) 45:57:28 adr: 1 control: 0 mode: -1
track:  68 lba:    209447 (   837788) 46:34:47 adr: 1 control: 0 mode: -1
track:  69 lba:    212609 (   850436) 47:16:59 adr: 1 control: 0 mode: -1
track:  70 lba:    215633 (   862532) 47:57:08 adr: 1 control: 0 mode: -1
track:  71 lba:    218433 (   873732) 48:34:33 adr: 1 control: 0 mode: -1
track:  72 lba:    221526 (   886104) 49:15:51 adr: 1 control: 0 mode: -1
track:  73 lba:    224507 (   898028) 49:55:32 adr: 1 control: 0 mode: -1
track:  74 lba:    226667 (   906668) 50:24:17 adr: 1 control: 0 mode: -1
track:  75 lba:    229913 (   919652) 51:07:38 adr: 1 control: 0 mode: -1
track:  76 lba:    232581 (   930324) 51:43:06 adr: 1 control: 0 mode: -1
track:  77 lba:    235430 (   941720) 52:21:05 adr: 1 control: 0 mode: -1
track:  78 lba:    237798 (   951192) 52:52:48 adr: 1 control: 0 mode: -1
track:  79 lba:    240264 (   961056) 53:25:39 adr: 1 control: 0 mode: -1
track:  80 lba:    242431 (   969724) 53:54:31 adr: 1 control: 0 mode: -1
track:  81 lba:    244743 (   978972) 54:25:18 adr: 1 control: 0 mode: -1
track:  82 lba:    246771 (   987084) 54:52:21 adr: 1 control: 0 mode: -1
track:  83 lba:    249522 (   998088) 55:28:72 adr: 1 control: 0 mode: -1
track:  84 lba:    251911 (  1007644) 56:00:61 adr: 1 control: 0 mode: -1
track:  85 lba:    254635 (  1018540) 56:37:10 adr: 1 control: 0 mode: -1
track:  86 lba:    256711 (  1026844) 57:04:61 adr: 1 control: 0 mode: -1
track:  87 lba:    258021 (  1032084) 57:22:21 adr: 1 control: 0 mode: -1
track:  88 lba:    259588 (  1038352) 57:43:13 adr: 1 control: 0 mode: -1
track:  89 lba:    261211 (  1044844) 58:04:61 adr: 1 control: 0 mode: -1
track:  90 lba:    262207 (  1048828) 58:18:07 adr: 1 control: 0 mode: -1
track:  91 lba:    263433 (  1053732) 58:34:33 adr: 1 control: 0 mode: -1
track:  92 lba:    264736 (  1058944) 58:51:61 adr: 1 control: 0 mode: -1
track:  93 lba:    265648 (  1062592) 59:03:73 adr: 1 control: 0 mode: -1
track:  94 lba:    266770 (  1067080) 59:18:70 adr: 1 control: 0 mode: -1
track:  95 lba:    269549 (  1078196) 59:55:74 adr: 1 control: 0 mode: -1
track:  96 lba:    272189 (  1088756) 60:31:14 adr: 1 control: 0 mode: -1
track:  97 lba:    275282 (  1101128) 61:12:32 adr: 1 control: 0 mode: -1
track:  98 lba:    277693 (  1110772) 61:44:43 adr: 1 control: 0 mode: -1
track:  99 lba:    279761 (  1119044) 62:12:11 adr: 1 control: 0 mode: -1
track:lout lba:    285600 (  1142400) 63:30:00 adr: 1 control: 0 mode: -1
